#!OML:ASF E:\motion texture\Top Level 1\Subject 1\Session 1\male.ASF
:FULLY-SPECIFIED
:DEGREES
417
root -15.4293 18.0922 -3.66578 50.6256 -75.8505 -42.2037
lowerback -1.72583 -0.0465005 8.61985
upperback -1.95095 -0.227261 3.74692
thorax -1.06662 -0.2426 -0.953762
lowerneck -7.70646 -14.3014 -16.7065
upperneck 8.50275 -18.9662 13.3087
head 6.71212 -9.11397 4.87967
rclavicle -1.41883e-014 -4.07509e-014
rhumerus -33.0979 -26.0716 -70.4853
rradius 19.2479
rwrist 16.9682
rhand -12.3034 -29.3334
rfingers 7.12502
rthumb 13.7646 -58.8581
lclavicle -1.41883e-014 -4.07509e-014
lhumerus -51.2107 26.148 63.8217
lradius 26.7365
lwrist -26.0198
lhand -7.75894 19.127
lfingers 7.12502
lthumb 18.1408 48.301
rfemur -5.07262 7.46754 33.874
rtibia 14.8308
rfoot -11.8122 -12.8562
rtoes 10.0128
lfemur -31.0174 1.94521 -1.32573
ltibia 27.9679
lfoot -5.65247 4.84076
ltoes -12.8487
418
root -15.5437 18.0821 -3.61748 51.2549 -76.08 -42.7242
lowerback -1.72452 -0.0636588 8.6182
upperback -1.96119 -0.248741 3.71569
thorax -1.07989 -0.253948 -0.985192
lowerneck -7.75252 -14.2402 -16.6498
upperneck 8.61683 -18.8876 13.2599
head 6.73367 -9.07461 4.86468
rclavicle -1.56046e-014 -4.96962e-015
rhumerus -33.1675 -25.9403 -70.1868
rradius 19.1611
rwrist 17.3564
rhand -12.2469 -29.1248
rfingers 7.12502
rthumb 13.8191 -58.6458
lclavicle -1.56046e-014 -4.96962e-015
lhumerus -50.8587 25.8771 64.1328
lradius 27.0502
lwrist -25.6813
lhand -8.03754 19.1717
lfingers 7.12502
lthumb 17.8727 48.3705
rfemur -4.81619 7.56923 33.7046
rtibia 14.9996
rfoot -12.0715 -12.7603
rtoes 9.26939
lfemur -30.9806 1.62784 -1.21763
ltibia 26.5854
lfoot -5.43483 5.03089
ltoes -12.853
419
root -15.6589 18.0719 -3.56797 51.905 -76.3179 -43.274
lowerback -1.72306 -0.0837447 8.60952
upperback -1.96959 -0.27415 3.68551
thorax -1.09158 -0.267052 -1.0117
lowerneck -7.80308 -14.1748 -16.5895
upperneck 8.7335 -18.8028 13.2071
head 6.75519 -9.03222 4.84857
rclavicle -3.30976e-014 -3.06128e-014
rhumerus -33.2062 -25.7659 -69.9145
rradius 19.1258
rwrist 17.6649
rhand -12.2008 -28.9502
rfingers 7.12502
rthumb 13.8635 -58.4681
lclavicle -3.30976e-014 -3.06128e-014
lhumerus -50.5019 25.6246 64.4261
lradius 27.3421
lwrist -25.3885
lhand -8.30875 19.2197
lfingers 7.12502
lthumb 17.6117 48.442
rfemur -4.57089 7.67024 33.5221
rtibia 15.2099
rfoot -12.3246 -12.658
rtoes 8.48968
lfemur -30.9188 1.29107 -1.11991
ltibia 25.2745
lfoot -5.20799 5.22089
ltoes -12.8261
420
root -15.7751 18.0614 -3.51724 52.5802 -76.5627 -43.8573
lowerback -1.72125 -0.106433 8.59598
upperback -1.97665 -0.303032 3.65648
thorax -1.10233 -0.281751 -1.03435
lowerneck -7.85646 -14.1058 -16.5257
upperneck 8.85245 -18.7126 13.1503
head 6.77646 -8.98724 4.8314
rclavicle 2.045e-014 -1.0138e-014
rhumerus -33.2174 -25.555 -69.6658
rradius 19.1378
rwrist 17.8894
rhand -12.1691 -28.8082
rfingers 7.12502
rthumb 13.8941 -58.324
lclavicle 2.045e-014 -1.0138e-014
lhumerus -50.1406 25.391 64.7005
lradius 27.6102
lwrist -25.1419
lhand -8.57023 19.2715
lfingers 7.12502
lthumb 17.3601 48.5162
rfemur -4.33966 7.76771 33.3274
rtibia 15.4671
rfoot -12.571 -12.5466
rtoes 7.67296
lfemur -30.8341 0.937627 -1.03288
ltibia 24.0416
lfoot -4.97586 5.40889
ltoes -12.7723
421
root -15.8922 18.0509 -3.46522 53.2792 -76.8141 -44.4743
lowerback -1.71904 -0.132261 8.57687
upperback -1.98125 -0.33616 3.62878
thorax -1.11105 -0.298349 -1.0526
lowerneck -7.91603 -14.0333 -16.4573
upperneck 8.97565 -18.6168 13.0879
head 6.79838 -8.93945 4.81225
rclavicle 1.93815e-015 3.10104e-014
rhumerus -33.1988 -25.3135 -69.4398
rradius 19.1948
rwrist 18.0343
rhand -12.1628 -28.6916
rfingers 7.12502
rthumb 13.9001 -58.207
lclavicle 1.93815e-015 3.10104e-014
lhumerus -49.7729 25.1741 64.9613
lradius 27.8566
lwrist -24.9338
lhand -8.82262 19.3283
lfingers 7.12502
lthumb 17.1172 48.5943
rfemur -4.12465 7.85954 33.1195
rtibia 15.7755
rfoot -12.8067 -12.4243
rtoes 6.81324
lfemur -30.7282 0.569473 -0.959865
ltibia 22.8948
lfoot -4.74477 5.59519
ltoes -12.7014
422
root -16.0103 18.0404 -3.41204 54.0088 -77.0713 -45.1313
lowerback -1.7151 -0.161121 8.55267
upperback -1.98451 -0.373162 3.60246
thorax -1.11961 -0.316761 -1.06663
lowerneck -7.97834 -13.9566 -16.385
upperneck 9.10165 -18.515 13.0213
head 6.82009 -8.88881 4.79197
rclavicle 1.79155e-014 -2.76311e-014
rhumerus -33.1547 -25.0469 -69.2346
rradius 19.294
rwrist 18.0988
rhand -12.1796 -28.6071
rfingers 7.12502
rthumb 13.8839 -58.1237
lclavicle 1.79155e-014 -2.76311e-014
lhumerus -49.4006 24.9764 65.2054
lradius 28.0799
lwrist -24.7661
lhand -9.06564 19.3899
lfingers 7.12502
lthumb 16.8833 48.676
rfemur -3.93057 7.94847 32.8997
rtibia 16.1403
rfoot -13.0274 -12.292
rtoes 5.91915
lfemur -30.6043 0.191205 -0.901018
ltibia 21.8401
lfoot -4.51697 5.77975
ltoes -12.6094
